<svg width="83" height="64" viewBox="0 0 83 64" fill="none" xmlns="http://www.w3.org/2000/svg">
<g opacity="0.6">
<circle cx="2.5" cy="2.5" r="2.5" fill="#260F09"/>
<circle cx="60.5479" cy="2.5" r="2.5" fill="#260F09"/>
<circle cx="79.8975" cy="2.5" r="2.5" fill="#260F09"/>
<circle cx="41.1987" cy="2.5" r="2.5" fill="#260F09"/>
<circle cx="21.8496" cy="2.5" r="2.5" fill="#260F09"/>
<circle cx="2.5" cy="41.1988" r="2.5" fill="#260F09"/>
<circle cx="60.5479" cy="41.1988" r="2.5" fill="#260F09"/>
<circle cx="79.8975" cy="41.1988" r="2.5" fill="#260F09"/>
<circle cx="41.1987" cy="41.1988" r="2.5" fill="#260F09"/>
<circle cx="21.8496" cy="41.1988" r="2.5" fill="#260F09"/>
<circle cx="2.5" cy="60.5482" r="2.5" fill="#260F09"/>
<circle cx="60.5479" cy="60.5482" r="2.5" fill="#260F09"/>
<circle cx="79.8975" cy="60.5482" r="2.5" fill="#260F09"/>
<circle cx="41.1987" cy="60.5482" r="2.5" fill="#260F09"/>
<circle cx="21.8496" cy="60.5482" r="2.5" fill="#260F09"/>
<circle cx="2.5" cy="21.8494" r="2.5" fill="#260F09"/>
<circle cx="60.5479" cy="21.8494" r="2.5" fill="#260F09"/>
<circle cx="79.8975" cy="21.8494" r="2.5" fill="#260F09"/>
<circle cx="41.1987" cy="21.8494" r="2.5" fill="#260F09"/>
<circle cx="21.8496" cy="21.8494" r="2.5" fill="#260F09"/>
</g>
</svg>
