<svg width="26" height="27" viewBox="0 0 26 27" fill="none" xmlns="http://www.w3.org/2000/svg">
<g clip-path="url(#clip0)">
<path d="M12.2971 15.1875H14.1684V7.93713H12.2971V15.1875Z" fill="black"/>
<path d="M12.465 5.34393C12.28 5.53156 12.1875 5.77056 12.1875 6.06093C12.1875 6.35577 12.2822 6.59699 12.4714 6.78462C12.665 6.97224 12.9188 7.06606 13.2329 7.06606C13.5469 7.06606 13.7985 6.97224 13.9878 6.78462C14.1814 6.59699 14.2781 6.35577 14.2781 6.06093C14.2781 5.77056 14.1836 5.53156 13.9943 5.34393C13.8049 5.15631 13.5512 5.0625 13.2329 5.0625C12.9102 5.0625 12.6543 5.15631 12.465 5.34393Z" fill="black"/>
<path fill-rule="evenodd" clip-rule="evenodd" d="M2.4375 0C1.09131 0 0 1.13327 0 2.53125V17.7188C0 19.1168 1.09131 20.25 2.4375 20.25H4.875V26.1562C4.875 26.4806 5.05403 26.7762 5.33553 26.9167C5.61704 27.0572 5.95117 27.0177 6.19506 26.8151L14.0975 20.25H23.5625C24.9087 20.25 26 19.1168 26 17.7188V2.53125C26 1.13328 24.9087 0 23.5625 0H2.4375ZM1.625 2.53125C1.625 2.06526 1.98876 1.6875 2.4375 1.6875H23.5625C24.0112 1.6875 24.375 2.06526 24.375 2.53125V17.7188C24.375 18.1848 24.0112 18.5625 23.5625 18.5625H13.8125C13.628 18.5625 13.449 18.6277 13.3049 18.7474L6.5 24.4007V19.4062C6.5 18.9402 6.13623 18.5625 5.6875 18.5625H2.4375C1.98877 18.5625 1.625 18.1848 1.625 17.7188V2.53125Z" fill="black"/>
</g>
<defs>
<clipPath id="clip0">
<rect width="26" height="27" fill="white"/>
</clipPath>
</defs>
</svg>
