<svg width="27" height="28" viewBox="0 0 27 28" fill="none" xmlns="http://www.w3.org/2000/svg">
<g clip-path="url(#clip0)">
<path d="M22.6799 28H5.39991C3.61062 28 2.15991 26.4956 2.15991 24.64V0.56C2.15991 0.25088 2.40183 0 2.69991 0H23.2199C23.518 0 23.7599 0.25088 23.7599 0.56V22.4H25.3799C25.678 22.4 25.9199 22.6509 25.9199 22.96V24.64C25.9199 26.4956 24.4692 28 22.6799 28ZM3.23991 24.64C3.24126 25.2722 3.50019 25.8742 3.95271 26.2976C4.33476 26.6941 4.85991 26.9055 5.39991 26.88H5.61591C6.74964 26.7207 7.58691 25.7032 7.55991 24.5171V22.96C7.55991 22.6509 7.80183 22.4 8.09991 22.4H22.6799V1.12H3.23991V24.64ZM7.77591 26.88H22.6799C23.8728 26.88 24.8399 25.877 24.8399 24.64V23.52H8.63991V24.5171C8.64126 25.3876 8.33373 26.2287 7.77591 26.88ZM16.1999 19.04H6.47991V17.92H16.1999V19.04ZM19.4399 15.68H6.47991V14.56H19.4399V15.68ZM19.4399 12.32H6.47991V11.2H19.4399V12.32ZM19.4399 8.96H6.47991V7.84H19.4399V8.96ZM17.2799 5.6H6.47991V4.48H17.2799V5.6Z" fill="black"/>
</g>
<defs>
<clipPath id="clip0">
<rect width="27" height="28" fill="white"/>
</clipPath>
</defs>
</svg>
