<svg width="30" height="31" viewBox="0 0 30 31" fill="none" xmlns="http://www.w3.org/2000/svg">
<g clip-path="url(#clip0)">
<path d="M12.0331 17.9131C12.0316 17.2674 12.2521 16.6412 12.6566 16.1421C13.0611 15.643 13.6245 15.3021 14.2501 15.1779V14.5882C14.2501 14.3867 14.3291 14.1935 14.4698 14.051C14.6104 13.9085 14.8012 13.8284 15.0001 13.8284C15.199 13.8284 15.3898 13.9085 15.5304 14.051C15.6711 14.1935 15.7501 14.3867 15.7501 14.5882V15.1961C16.1918 15.3112 16.6012 15.5283 16.9463 15.8304C17.2913 16.1325 17.5627 16.5115 17.7391 16.9376C17.8089 17.122 17.8051 17.3267 17.7284 17.5083C17.6517 17.6899 17.5083 17.8342 17.3284 17.9104C17.1486 17.9867 16.9465 17.9891 16.765 17.9169C16.5835 17.8448 16.4368 17.7039 16.3561 17.5241C16.2447 17.2538 16.0567 17.0229 15.8159 16.8606C15.5751 16.6983 15.2923 16.612 15.0031 16.6124C14.2951 16.6124 13.5361 17.0196 13.5361 17.9131C13.5361 18.1472 13.5361 18.8523 15.1711 19.2322H15.1951C17.5951 19.8005 17.9701 21.2259 17.9701 22.0252C17.9715 22.671 17.7511 23.2972 17.3466 23.7963C16.942 24.2954 16.3786 24.6363 15.7531 24.7605V25.3683C15.7531 25.5699 15.6741 25.7631 15.5334 25.9056C15.3928 26.0481 15.202 26.1281 15.0031 26.1281C14.8042 26.1281 14.6134 26.0481 14.4728 25.9056C14.3321 25.7631 14.2531 25.5699 14.2531 25.3683V24.7605C13.8114 24.6454 13.402 24.4283 13.0569 24.1262C12.7118 23.8241 12.4405 23.4451 12.2641 23.019C12.2225 22.9264 12.1997 22.8263 12.1971 22.7247C12.1944 22.623 12.2119 22.5218 12.2486 22.4271C12.2852 22.3324 12.3403 22.2461 12.4105 22.1734C12.4807 22.1006 12.5645 22.0429 12.6572 22.0036C12.7498 21.9643 12.8492 21.9443 12.9496 21.9447C13.0501 21.9451 13.1494 21.9659 13.2417 22.0059C13.334 22.0459 13.4174 22.1042 13.4871 22.1775C13.5567 22.2508 13.6111 22.3375 13.6471 22.4325C13.759 22.7031 13.9475 22.9341 14.1888 23.0963C14.4301 23.2586 14.7135 23.3448 15.0031 23.3442C15.7111 23.3442 16.4701 22.937 16.4701 22.0434C16.4701 21.8094 16.4701 21.1043 14.8351 20.7244H14.8111C12.3931 20.1409 12.0331 18.7155 12.0331 17.9131ZM17.4331 7.4856C17.5959 7.59766 17.7957 7.64038 17.9893 7.60456C18.1829 7.56874 18.3549 7.45725 18.4681 7.29413L21.0511 3.56805C21.1592 3.41095 21.205 3.2184 21.1794 3.02865C21.1539 2.83891 21.0588 2.66584 20.9131 2.54384C17.5951 -0.246164 12.3991 -0.243124 9.08408 2.55295C8.93906 2.67486 8.84465 2.8476 8.81963 3.03682C8.79462 3.22604 8.84083 3.41786 8.94908 3.57413L11.5321 7.29413C11.6494 7.45072 11.8221 7.55514 12.0138 7.58545C12.2055 7.61576 12.4014 7.56961 12.5603 7.45669C12.7191 7.34376 12.8286 7.17287 12.8656 6.9799C12.9027 6.78693 12.8645 6.58691 12.7591 6.42188L10.5931 3.3006C11.9013 2.42741 13.4335 1.96201 15.0001 1.96201C16.5667 1.96201 18.0989 2.42741 19.4071 3.3006L17.2411 6.42795C17.127 6.59284 17.0823 6.79683 17.1166 6.99514C17.1509 7.19344 17.2615 7.36984 17.4241 7.4856H17.4331ZM4.89908 22.2835C4.90532 19.7746 5.45093 17.2972 6.49797 15.0235C7.54502 12.7498 9.06836 10.7345 10.9621 9.11766C11.0972 9.00207 11.2682 8.93856 11.4451 8.93835H18.5521C18.7289 8.93856 18.9 9.00207 19.0351 9.11766C20.9293 10.7342 22.4533 12.7494 23.5008 15.0231C24.5484 17.2968 25.0945 19.7744 25.1011 22.2835V24.4444L25.3321 24.5569C25.9033 24.8334 26.3648 25.2984 26.641 25.8755C26.9171 26.4526 26.9916 27.1076 26.8521 27.7332C26.7126 28.3588 26.3675 28.9178 25.8733 29.3186C25.3791 29.7195 24.7652 29.9383 24.1321 29.9393H5.86508C5.23201 29.9383 4.61805 29.7195 4.12385 29.3186C3.62964 28.9178 3.28452 28.3588 3.14504 27.7332C3.00557 27.1076 3.08002 26.4526 3.3562 25.8755C3.63237 25.2984 4.09388 24.8334 4.66508 24.5569L4.89608 24.4444L4.89908 22.2835ZM4.59908 27.3985C4.66219 27.689 4.82168 27.9489 5.05096 28.1347C5.28024 28.3205 5.56546 28.4211 5.85908 28.4197H24.1291C24.4214 28.4186 24.7047 28.3171 24.9328 28.1319C25.1609 27.9467 25.3203 27.6887 25.385 27.3999C25.4497 27.1112 25.416 26.8087 25.2892 26.5418C25.1625 26.275 24.9502 26.0595 24.6871 25.9306L24.0301 25.6267C23.9 25.5629 23.7909 25.4625 23.7159 25.3374C23.6408 25.2123 23.6031 25.0679 23.6071 24.9216V22.2835C23.6 20.0417 23.1207 17.8271 22.2014 15.7879C21.2821 13.7486 19.9439 11.9315 18.2761 10.458H11.7241C10.0568 11.9323 8.7194 13.7501 7.80111 15.7899C6.88282 17.8297 6.40483 20.0446 6.39908 22.2866V24.9246C6.39882 25.0677 6.35869 25.2077 6.28333 25.3287C6.20797 25.4497 6.10043 25.5466 5.97308 25.6084L5.31608 25.9124C5.04643 26.0389 4.82829 26.256 4.69869 26.5269C4.56909 26.7978 4.53602 27.1057 4.60508 27.3985H4.59908Z" fill="black"/>
</g>
<defs>
<clipPath id="clip0">
<rect width="30" height="31" fill="white"/>
</clipPath>
</defs>
</svg>
